<?xml version="1.0" encoding="utf-8"?>
<!-- Generator: Adobe Illustrator 15.0.0, SVG Export Plug-In . SVG Version: 6.00 Build 0)  -->
<!DOCTYPE svg PUBLIC "-//W3C//DTD SVG 1.1//EN" "http://www.w3.org/Graphics/SVG/1.1/DTD/svg11.dtd">
<svg version="1.1" id="Layer_1" xmlns="http://www.w3.org/2000/svg" xmlns:xlink="http://www.w3.org/1999/xlink" x="0px" y="0px"
	 width="25px" height="25px" viewBox="0 0 25 25" enable-background="new 0 0 25 25" xml:space="preserve">
<rect fill="#FFFFFF" stroke="#FFFFFF" stroke-miterlimit="10" width="25" height="25"/>
<path fill="#F15725" d="M24.226,21.748l-9.289-9.147c0.885-1.538,1.248-3.393,0.894-5.275c-0.787-4.151-4.771-6.885-8.883-6.093
	c-4.114,0.794-6.822,4.815-6.04,8.965c0.786,4.151,4.771,6.887,8.884,6.095c1.191-0.229,2.265-0.731,3.17-1.428l9.178,9.04
	L24.226,21.748z M9.42,14.319c-3.036,0.585-5.978-1.432-6.556-4.499C2.286,6.758,4.284,3.791,7.32,3.205
	c3.037-0.587,5.978,1.435,6.556,4.496C14.455,10.767,12.458,13.735,9.42,14.319z"/>
</svg>
