<?xml version="1.0" encoding="utf-8"?>
<!-- Generator: Adobe Illustrator 15.0.0, SVG Export Plug-In . SVG Version: 6.00 Build 0)  -->
<!DOCTYPE svg PUBLIC "-//W3C//DTD SVG 1.1//EN" "http://www.w3.org/Graphics/SVG/1.1/DTD/svg11.dtd">
<svg version="1.1" id="Layer_1" xmlns="http://www.w3.org/2000/svg" xmlns:xlink="http://www.w3.org/1999/xlink" x="0px" y="0px"
	 width="23.249px" height="23.61px" viewBox="0 0 23.249 23.61" enable-background="new 0 0 23.249 23.61" xml:space="preserve">
<g>
	<g>
		<path fill="#FFFFFF" d="M22.882,22.479H0.404l0.404,0.404V0.404L0.404,0.809h22.478l-0.403-0.404v22.479L22.882,22.479z M22.882,0
			H0.404H0v0.404v22.479v0.404h0.404h22.478h0.404v-0.404V0.404V0H22.882z"/>
	</g>
	<g>
		
			<rect x="-4.327" y="11.239" transform="matrix(-0.6989 -0.7152 0.7152 -0.6989 11.02 27.9255)" fill="#FFFFFF" width="31.43" height="0.808"/>
	</g>
	<g>
		<path fill="#FFFFFF" d="M9.089,12.165v7.717H6.955V3.098h5.797c0.746,0,1.374,0.121,1.886,0.36
			c0.512,0.241,0.928,0.558,1.245,0.953c0.318,0.396,0.548,0.841,0.688,1.337s0.209,1.007,0.209,1.535
			c0,0.992-0.264,1.837-0.792,2.535c-0.527,0.698-1.288,1.131-2.28,1.302v0.046c0.479,0.078,0.887,0.186,1.22,0.326
			c0.334,0.14,0.608,0.369,0.826,0.686c0.217,0.318,0.38,0.74,0.487,1.267c0.109,0.526,0.179,1.208,0.21,2.045
			c0,0.187,0.015,0.469,0.047,0.848c0.029,0.38,0.073,0.79,0.127,1.232c0.054,0.441,0.115,0.871,0.187,1.289
			c0.069,0.418,0.143,0.76,0.221,1.023h-2.232c-0.155-0.295-0.267-0.644-0.337-1.047c-0.069-0.402-0.12-0.848-0.151-1.337
			c-0.031-0.487-0.055-1.003-0.068-1.545c-0.017-0.543-0.048-1.093-0.094-1.65c-0.047-0.511-0.171-0.91-0.372-1.196
			c-0.203-0.287-0.432-0.5-0.688-0.641c-0.256-0.138-0.521-0.224-0.792-0.254c-0.272-0.032-0.502-0.047-0.688-0.047H9.089z
			 M9.089,10.309h3.22c0.389,0,0.728-0.078,1.015-0.233c0.288-0.155,0.524-0.361,0.712-0.617c0.187-0.256,0.326-0.551,0.42-0.884
			s0.139-0.687,0.139-1.06c0-0.295-0.037-0.598-0.115-0.907c-0.077-0.311-0.207-0.586-0.386-0.827
			c-0.178-0.24-0.412-0.438-0.699-0.593c-0.288-0.155-0.642-0.233-1.062-0.233H9.089V10.309z"/>
	</g>
</g>
</svg>
