<?xml version="1.0" encoding="utf-8"?>
<!-- Generator: Adobe Illustrator 15.0.0, SVG Export Plug-In . SVG Version: 6.00 Build 0)  -->
<!DOCTYPE svg PUBLIC "-//W3C//DTD SVG 1.1//EN" "http://www.w3.org/Graphics/SVG/1.1/DTD/svg11.dtd">
<svg version="1.1" id="Layer_1" xmlns="http://www.w3.org/2000/svg" xmlns:xlink="http://www.w3.org/1999/xlink" x="0px" y="0px"
	 width="16.276px" height="16.275px" viewBox="0 0 16.276 16.275" enable-background="new 0 0 16.276 16.275" xml:space="preserve">
<g>
	<g>
		<path fill="#00AEEF" d="M15.776,15.275H0.5l0.5,0.5V0.5L0.5,1h15.276l-0.5-0.5v15.275L15.776,15.275z M15.776,0H0.5H0v0.5v15.275
			v0.5h0.5h15.276h0.5v-0.5V0.5V0H15.776z"/>
	</g>
	<g>
		
			<rect x="-2.715" y="7.638" transform="matrix(-0.699 -0.7152 0.7152 -0.699 7.7117 19.5216)" fill="#00AEEF" width="21.359" height="1"/>
	</g>
	<g>
		<path fill="#00AEEF" d="M6.41,8.494v5.242H4.957V2.33h3.932c0.505,0,0.932,0.082,1.278,0.245c0.348,0.163,0.63,0.379,0.846,0.647
			c0.216,0.27,0.371,0.572,0.466,0.909s0.142,0.685,0.142,1.043c0,0.675-0.179,1.249-0.537,1.723
			c-0.357,0.474-0.873,0.769-1.547,0.885v0.032c0.326,0.053,0.604,0.126,0.829,0.221c0.227,0.095,0.413,0.25,0.562,0.466
			c0.146,0.216,0.258,0.503,0.331,0.86c0.073,0.358,0.121,0.821,0.142,1.391c0,0.126,0.012,0.318,0.032,0.576
			s0.05,0.537,0.087,0.837s0.079,0.593,0.127,0.876c0.047,0.285,0.097,0.517,0.149,0.695h-1.517c-0.105-0.2-0.182-0.438-0.229-0.711
			c-0.048-0.273-0.082-0.576-0.104-0.907c-0.021-0.332-0.037-0.682-0.047-1.05c-0.01-0.369-0.031-0.742-0.062-1.121
			C9.805,9.6,9.72,9.328,9.583,9.134s-0.291-0.34-0.465-0.435C8.944,8.604,8.766,8.547,8.581,8.525
			C8.397,8.505,8.242,8.494,8.115,8.494H6.41z M6.41,7.229h2.179c0.263,0,0.492-0.053,0.688-0.158
			c0.193-0.105,0.354-0.244,0.48-0.418c0.127-0.174,0.221-0.374,0.285-0.601c0.062-0.227,0.094-0.466,0.094-0.719
			c0-0.2-0.025-0.405-0.078-0.616c-0.053-0.21-0.141-0.396-0.262-0.561C9.675,3.993,9.518,3.859,9.324,3.754
			C9.129,3.648,8.889,3.596,8.605,3.596H6.41V7.229z"/>
	</g>
</g>
</svg>
